ExternalForces									
version=1									
nRows=220									
nColumns=10									
inDegrees=yes									
endheader									
time	chair_force_vx	chair_force_vy	chair_force_vz	chair_force_px	chair_force_py	chair_force_pz	chair_torque_x	chair_torque_y	chair_torque_z
0	3.00887517	238.0398398	0	0	0	0	0	0	0
0.00702495	4.38817466	238.7293822	0	0	0	0	0	0	0
0.0140499	8.70315659	239.3462107	0	0	0	0	0	0	0
0.01772745	9.21844026	243.4051657	0	0	0	0	0	0	0
0.01885528	11.4396217	241.0944716	0	0	0	0	0	0	0
0.02449445	43.63267717	192.8853801	0	0	0	0	0	0	0
0.02499511	14.35198415	244.9104986	0	0	0	0	0	0	0
0.02549577	15.90343738	242.9403143	0	0	0	0	0	0	0
0.02799908	19.68604635	240.0888905	0	0	0	0	0	0	0
0.0359372	31.23405882	232.25548	0	0	0	0	0	0	0
0.03719362	30.16449392	236.1527811	0	0	0	0	0	0	0
0.03995753	31.83964128	237.7337135	0	0	0	0	0	0	0
0.04922324	39.82155886	239.3750081	0	0	0	0	0	0	0
0.05849249	51.9211478	233.8885633	0	0	0	0	0	0	0
0.06869363	59.77603225	236.7739828	0	0	0	0	0	0	0
0.0855109	86.58243264	218.5470598	0	0	0	0	0	0	0
0.08733971	84.0505334	225.9334506	0	0	0	0	0	0	0
0.09104859	85.51782732	229.8435316	0	0	0	0	0	0	0
0.10062569	94.272057	231.5720236	0	0	0	0	0	0	0
0.11020279	103.828492	232.9441926	0	0	0	0	0	0	0
0.11837427	106.7401767	234.6977953	0	0	0	0	0	0	0
0.12064374	110.212586	235.4589582	0	0	0	0	0	0	0
0.12663751	114.8498251	237.1035922	0	0	0	0	0	0	0
0.13575233	117.3009534	239.1364677	0	0	0	0	0	0	0
0.1389153	120.1725517	239.9646714	0	0	0	0	0	0	0
0.14605811	123.8539436	241.5551574	0	0	0	0	0	0	0
0.15358953	123.6060424	242.8340749	0	0	0	0	0	0	0
0.15864032	128.3090377	244.0117945	0	0	0	0	0	0	0
0.16369111	126.9208238	244.70259	0	0	0	0	0	0	0
0.17087622	128.015187	245.8582929	0	0	0	0	0	0	0
0.17974591	125.9360074	246.9605762	0	0	0	0	0	0	0
0.18186984	127.6903897	247.3665238	0	0	0	0	0	0	0
0.18663051	128.1980883	248.0185931	0	0	0	0	0	0	0
0.19523214	126.1065118	248.5539171	0	0	0	0	0	0	0
0.19722704	128.0326558	248.8312767	0	0	0	0	0	0	0
0.20136302	129.2796949	248.8947786	0	0	0	0	0	0	0
0.20679071	129.3762101	248.9725649	0	0	0	0	0	0	0
0.21221841	129.1258242	249.1209172	0	0	0	0	0	0	0
0.21938274	124.8585978	248.7197063	0	0	0	0	0	0	0
0.22118805	127.0967106	248.7146752	0	0	0	0	0	0	0
0.22451053	126.6820885	248.3855895	0	0	0	0	0	0	0
0.23105294	125.4574003	246.9577455	0	0	0	0	0	0	0
0.23812993	136.9792138	244.432686	0	0	0	0	0	0	0
0.23934159	129.3969488	243.4670553	0	0	0	0	0	0	0
0.2419567	125.766271	241.8519618	0	0	0	0	0	0	0
0.24739318	122.3398311	238.467666	0	0	0	0	0	0	0
0.25031719	124.9951009	236.7387838	0	0	0	0	0	0	0
0.25455453	123.6264627	233.9991194	0	0	0	0	0	0	0
0.26104222	142.4129871	230.2936329	0	0	0	0	0	0	0
0.2619681	130.2516221	229.357676	0	0	0	0	0	0	0
0.26324766	126.0336254	228.4051826	0	0	0	0	0	0	0
0.26754742	122.3503384	225.4809407	0	0	0	0	0	0	0
0.27354881	138.3790576	221.7596787	0	0	0	0	0	0	0
0.27457103	127.6815055	220.8885729	0	0	0	0	0	0	0
0.27639578	123.3321381	219.5901215	0	0	0	0	0	0	0
0.28096755	119.820057	216.4674308	0	0	0	0	0	0	0
0.28553932	137.8175148	213.4930908	0	0	0	0	0	0	0
0.28659173	125.9338034	212.6889597	0	0	0	0	0	0	0
0.28828434	121.748166	211.5067674	0	0	0	0	0	0	0
0.29272058	118.0518676	208.4643522	0	0	0	0	0	0	0
0.29715681	137.0892503	205.3473523	0	0	0	0	0	0	0
0.29817176	124.3961587	204.6870728	0	0	0	0	0	0	0
0.29975822	120.1719788	203.6074898	0	0	0	0	0	0	0
0.30410212	116.1692837	200.6457393	0	0	0	0	0	0	0
0.30844603	137.1087897	197.3790053	0	0	0	0	0	0	0
0.30941166	122.4764744	196.9321296	0	0	0	0	0	0	0
0.31075466	118.5756173	196.0833294	0	0	0	0	0	0	0
0.31509273	113.5848527	193.2767704	0	0	0	0	0	0	0
0.31860397	124.2388993	190.6830042	0	0	0	0	0	0	0
0.32074636	116.0463543	189.4631882	0	0	0	0	0	0	0
0.32464813	112.2564478	186.9952904	0	0	0	0	0	0	0
0.32874652	127.6906943	183.7324607	0	0	0	0	0	0	0
0.32973039	116.9257554	183.4624873	0	0	0	0	0	0	0
0.331735	112.1195805	182.3139673	0	0	0	0	0	0	0
0.3358018	106.1031255	179.881645	0	0	0	0	0	0	0
0.33749265	110.4334079	178.5698302	0	0	0	0	0	0	0
0.34007796	107.9941793	176.9716235	0	0	0	0	0	0	0
0.34616928	118.5011624	172.3309146	0	0	0	0	0	0	0
0.34713421	110.1702364	172.1494147	0	0	0	0	0	0	0
0.34967954	105.1955186	170.7379165	0	0	0	0	0	0	0
0.35363386	97.32037365	168.6093158	0	0	0	0	0	0	0
0.35476133	103.7954015	167.4322572	0	0	0	0	0	0	0
0.35633381	102.078763	166.4974622	0	0	0	0	0	0	0
0.36082747	91.90109905	164.2463592	0	0	0	0	0	0	0
0.3613895	97.96169873	163.4189755	0	0	0	0	0	0	0
0.36292964	99.92020133	162.2407112	0	0	0	0	0	0	0
0.36561644	97.80864833	160.6091716	0	0	0	0	0	0	0
0.37010921	113.1062844	156.267423	0	0	0	0	0	0	0
0.37096627	101.498621	156.6917382	0	0	0	0	0	0	0
0.37274721	96.37944482	155.9437785	0	0	0	0	0	0	0
0.37634676	91.00197765	154.0339013	0	0	0	0	0	0	0
0.37796156	94.15974137	152.6494502	0	0	0	0	0	0	0
0.38047844	91.48027823	151.2287374	0	0	0	0	0	0	0
0.38518326	106.1749664	146.4895227	0	0	0	0	0	0	0
0.38600216	94.90219446	147.1465824	0	0	0	0	0	0	0
0.38779257	89.74913608	146.5046461	0	0	0	0	0	0	0
0.39125696	84.50869886	144.7888268	0	0	0	0	0	0	0
0.39278155	87.63805096	143.4033603	0	0	0	0	0	0	0
0.39516415	85.11085544	142.1147645	0	0	0	0	0	0	0
0.39981853	99.78931992	137.1033324	0	0	0	0	0	0	0
0.40060315	88.56093654	138.0211858	0	0	0	0	0	0	0
0.40235523	83.4028979	137.478078	0	0	0	0	0	0	0
0.40616613	77.62080248	135.1659546	0	0	0	0	0	0	0
0.40811235	79.53865596	132.9837119	0	0	0	0	0	0	0
0.41170347	77.26061776	129.1590139	0	0	0	0	0	0	0
0.41635553	73.86625768	123.23113	0	0	0	0	0	0	0
0.42785412	63.03296669	105.5315925	0	0	0	0	0	0	0
0.43935271	53.03579171	85.51143155	0	0	0	0	0	0	0
0.44519797	46.53050237	73.89791869	0	0	0	0	0	0	0
0.45104323	38.2116619	60.73654867	0	0	0	0	0	0	0
0.462671	21.31331186	34.16474365	0	0	0	0	0	0	0
0.47429877	5.72924756	8.7803477	0	0	0	0	0	0	0
0.48547668	0	0	0	0	0	0	0	0	0
0.49268105	0	0	0	0	0	0	0	0	0
0.50139931	0	0	0	0	0	0	0	0	0
0.50795907	0	0	0	0	0	0	0	0	0
0.51451882	0	0	0	0	0	0	0	0	0
0.52275735	0	0	0	0	0	0	0	0	0
0.53099588	0	0	0	0	0	0	0	0	0
0.53707801	0	0	0	0	0	0	0	0	0
0.54316015	0	0	0	0	0	0	0	0	0
0.55149257	0	0	0	0	0	0	0	0	0
0.5595706	0	0	0	0	0	0	0	0	0
0.56764862	0	0	0	0	0	0	0	0	0
0.57279916	0	0	0	0	0	0	0	0	0
0.5779497	0	0	0	0	0	0	0	0	0
0.5915007	0	0	0	0	0	0	0	0	0
0.600151	0	0	0	0	0	0	0	0	0
0.60819481	0	0	0	0	0	0	0	0	0
0.61623862	0	0	0	0	0	0	0	0	0
0.62179501	0	0	0	0	0	0	0	0	0
0.6273514	0	0	0	0	0	0	0	0	0
0.63752896	0	0	0	0	0	0	0	0	0
0.64549063	0	0	0	0	0	0	0	0	0
0.65345229	0	0	0	0	0	0	0	0	0
0.66028664	0	0	0	0	0	0	0	0	0
0.66712099	0	0	0	0	0	0	0	0	0
0.67395533	0	0	0	0	0	0	0	0	0
0.6821924	0	0	0	0	0	0	0	0	0
0.68924862	0	0	0	0	0	0	0	0	0
0.69630485	0	0	0	0	0	0	0	0	0
0.70336107	0	0	0	0	0	0	0	0	0
0.71041729	0	0	0	0	0	0	0	0	0
0.71747352	0	0	0	0	0	0	0	0	0
0.72452974	0	0	0	0	0	0	0	0	0
0.73311873	0	0	0	0	0	0	0	0	0
0.73990617	0	0	0	0	0	0	0	0	0
0.7466936	0	0	0	0	0	0	0	0	0
0.75348103	0	0	0	0	0	0	0	0	0
0.76164719	0	0	0	0	0	0	0	0	0
0.76922646	0	0	0	0	0	0	0	0	0
0.77680573	0	0	0	0	0	0	0	0	0
0.784385	0	0	0	0	0	0	0	0	0
0.79042103	0	0	0	0	0	0	0	0	0
0.79645705	0	0	0	0	0	0	0	0	0
0.80448424	0	0	0	0	0	0	0	0	0
0.81112896	0	0	0	0	0	0	0	0	0
0.81777368	0	0	0	0	0	0	0	0	0
0.8244184	0	0	0	0	0	0	0	0	0
0.83106312	0	0	0	0	0	0	0	0	0
0.83770784	0	0	0	0	0	0	0	0	0
0.84613678	0	0	0	0	0	0	0	0	0
0.85456571	0	0	0	0	0	0	0	0	0
0.86045534	0	0	0	0	0	0	0	0	0
0.86634497	0	0	0	0	0	0	0	0	0
0.87353677	0	0	0	0	0	0	0	0	0
0.88072857	0	0	0	0	0	0	0	0	0
0.88792037	0	0	0	0	0	0	0	0	0
0.89511217	0	0	0	0	0	0	0	0	0
0.90059524	0	0	0	0	0	0	0	0	0
0.90607831	0	0	0	0	0	0	0	0	0
0.91436944	0	0	0	0	0	0	0	0	0
0.91957009	0	0	0	0	0	0	0	0	0
0.92468056	0	0	0	0	0	0	0	0	0
0.92979104	0	0	0	0	0	0	0	0	0
0.93490151	0	0	0	0	0	0	0	0	0
0.94017919	0	0	0	0	0	0	0	0	0
0.94545687	0	0	0	0	0	0	0	0	0
0.95030401	0	0	0	0	0	0	0	0	0
0.95515115	0	0	0	0	0	0	0	0	0
0.96031454	0	0	0	0	0	0	0	0	0
0.96547792	0	0	0	0	0	0	0	0	0
0.97012715	0	0	0	0	0	0	0	0	0
0.97477638	0	0	0	0	0	0	0	0	0
0.9800363	0	0	0	0	0	0	0	0	0
0.98529623	0	0	0	0	0	0	0	0	0
0.9899664	0	0	0	0	0	0	0	0	0
0.99463657	0	0	0	0	0	0	0	0	0
1.00042013	0	0	0	0	0	0	0	0	0
1.00620369	0	0	0	0	0	0	0	0	0
1.01069037	0	0	0	0	0	0	0	0	0
1.01517704	0	0	0	0	0	0	0	0	0
1.02240672	0	0	0	0	0	0	0	0	0
1.03121502	0	0	0	0	0	0	0	0	0
1.04610146	0	0	0	0	0	0	0	0	0
1.04809704	0	0	0	0	0	0	0	0	0
1.05570132	0	0	0	0	0	0	0	0	0
1.06675239	0	0	0	0	0	0	0	0	0
1.07693183	0	0	0	0	0	0	0	0	0
1.08430103	0	0	0	0	0	0	0	0	0
1.09167023	0	0	0	0	0	0	0	0	0
1.10196014	0	0	0	0	0	0	0	0	0
1.10942413	0	0	0	0	0	0	0	0	0
1.11688811	0	0	0	0	0	0	0	0	0
1.1243521	0	0	0	0	0	0	0	0	0
1.13356328	0	0	0	0	0	0	0	0	0
1.14110418	0	0	0	0	0	0	0	0	0
1.14864508	0	0	0	0	0	0	0	0	0
1.15618598	0	0	0	0	0	0	0	0	0
1.16372688	0	0	0	0	0	0	0	0	0
1.17450907	0	0	0	0	0	0	0	0	0
1.18529127	0	0	0	0	0	0	0	0	0
1.19356182	0	0	0	0	0	0	0	0	0
1.20183237	0	0	0	0	0	0	0	0	0
1.20758134	0	0	0	0	0	0	0	0	0
1.21333031	0	0	0	0	0	0	0	0	0
1.21907927	0	0	0	0	0	0	0	0	0
1.22200822	0	0	0	0	0	0	0	0	0
1.22493716	0	0	0	0	0	0	0	0	0
1.22524165	0	0	0	0	0	0	0	0	0
